<?xml version="1.0" standalone="no"?>
<!DOCTYPE svg PUBLIC "-//W3C//DTD SVG 20010904//EN"
 "http://www.w3.org/TR/2001/REC-SVG-20010904/DTD/svg10.dtd">
<svg version="1.0" xmlns="http://www.w3.org/2000/svg"
 width="1280.000000pt" height="1280.000000pt" viewBox="0 0 1280.000000 1280.000000"
 preserveAspectRatio="xMidYMid meet">
<g transform="translate(0.000000,1280.000000) scale(0.100000,-0.100000)"
fill="#000000" stroke="none">
<path d="M4260 8958 c0 -1749 -4 -2809 -10 -2818 -8 -13 -141 -15 -1080 -18
-588 -2 -1070 -5 -1070 -7 0 -8 334 -326 1790 -1700 855 -808 1827 -1726 2159
-2039 332 -314 610 -575 618 -580 11 -6 29 5 67 41 28 28 1028 972 2221 2099
1194 1127 2202 2079 2240 2116 l70 67 -1067 1 c-586 0 -1073 3 -1082 6 -15 6
-16 263 -16 2820 l0 2814 -2420 0 -2420 0 0 -2802z"/>
</g>
</svg>
