<?xml version="1.0" encoding="UTF-8"?>
<svg width="600" height="450" version="1.1" xmlns="http://www.w3.org/2000/svg" xmlns:xlink="http://www.w3.org/1999/xlink">
 <g id="a" fill="#656565">
  <path d="m151 170.7h-110.64v-110.64h110.64zm-107.9-2.7404h105.16v-105.16h-105.16z"/>
  <path d="m179.6 136.5v-11.762h-25.38v-15.429h25.38v-11.111l20.727 19.151-10.367 9.5787z"/>
  <path d="m471.2 173.9h-263.27v-113.17h263.27zm-256.75-2.8029h250.23v-107.56h-250.23z"/>
  <path d="m374.72 117.3c0 3.8545-3.2483 6.9793-7.256 6.9793h-41.012c-4.0077 0-7.256-3.1248-7.256-6.9793 0-3.8544 3.2483-6.9793 7.256-6.9793h41.012c4.0083 0 7.2566 3.1249 7.2566 6.9793z"/>
  <path d="m506 136.5v-11.762h-25.38v-15.429h25.38v-11.111l20.727 19.151-10.367 9.5788z"/>
 </g>
 <path d="m271.7 221.1c1.6719 1.6999 1.6719 4.455 0 6.1257l-16.235 16.235c-1.6999 1.7005-4.4259 1.7005-6.1251 0l-16.236-16.235c-1.7005-1.6707-1.7005-4.4258 0-6.1257 2.3444-2.198 8.792 2.6385 14.595 4.8943v-22.595c0-1.5826 1.2885-2.8717 2.8712-2.8717h4.337c1.5832 0 2.8718 1.2891 2.8718 2.8717v22.302c5.4805-2.3147 11.342-6.5934 13.921-4.6008z" fill="#656565"/>
 <use transform="translate(.6 213.5)" xlink:href="#a"/>
 <g font-family="'Liberation Sans'" font-size="25px">
  <g text-anchor="middle">
   <text x="96" y="126">Data 1</text>
   <text x="96" y="339">Data 2</text>
   <text x="268" y="126">Model 1</text>
   <text x="268" y="339">Model 1</text>
   <text x="421" y="126">Head 1</text>
   <text x="354" y="418">Task 2</text>
   <text x="354" y="50">Task 1</text>
   <text x="421" y="339">Head 2</text>
  </g>
  <text x="535" y="337">y2</text>
  <text x="535" y="123">y1</text>
  <text x="283" y="234">Transfer learning</text>
 </g>
</svg>
